{
    "asset" : {
        "generator" : "Khronos glTF Blender I/O v1.0.5",
        "version" : "2.0"
    },
    "scene" : 0,
    "scenes" : [
        {
            "extras" : {
                "glTF2ExportSettings" : {
                    "export_all_influences" : 0,
                    "export_animations" : 1,
                    "export_apply" : 1,
                    "export_cameras" : 1,
                    "export_colors" : 1,
                    "export_copyright" : "",
                    "export_current_frame" : 0,
                    "export_displacement" : 0,
                    "export_draco_mesh_compression_enable" : 0,
                    "export_draco_mesh_compression_level" : 6,
                    "export_draco_normal_quantization" : 10,
                    "export_draco_position_quantization" : 14,
                    "export_draco_texcoord_quantization" : 12,
                    "export_extras" : 1,
                    "export_force_sampling" : 1,
                    "export_format" : "GLTF_EMBEDDED",
                    "export_frame_range" : 1,
                    "export_frame_step" : 1,
                    "export_image_format" : "NAME",
                    "export_lights" : 1,
                    "export_materials" : 1,
                    "export_morph" : 1,
                    "export_morph_normal" : 1,
                    "export_morph_tangent" : 0,
                    "export_nla_strips" : 1,
                    "export_normals" : 1,
                    "export_selected" : 1,
                    "export_skins" : 1,
                    "export_tangents" : 1,
                    "export_texcoords" : 1,
                    "export_yup" : 0
                }
            },
            "name" : "Scene",
            "nodes" : [
                3
            ]
        }
    ],
    "nodes" : [
        {
            "extras" : {},
            "mesh" : 0,
            "name" : "Sphere",
            "translation" : [
                3.814697265625e-06,
                -2.5853514671325684e-06,
                199.9999237060547
            ]
        },
        {
            "children" : [
                0
            ],
            "extras" : {},
            "name" : "d_sun",
            "rotation" : [
                0.7557017803192139,
                -0.07120389491319656,
                0.6480037569999695,
                0.06273666024208069
            ],
            "translation" : [
                -2108.65380859375,
                415.59405517578125,
                233.71835327148438
            ]
        },
        {
            "extras" : {},
            "mesh" : 1,
            "name" : "g_sky",
            "translation" : [
                -0.0003940353053621948,
                -6.263996328925714e-05,
                268.4315490722656
            ]
        },
        {
            "children" : [
                1,
                2
            ],
            "extras" : {},
            "name" : "rp_skydome"
        }
    ],
    "animations" : [
        {
            "channels" : [
                {
                    "sampler" : 0,
                    "target" : {
                        "node" : 1,
                        "path" : "translation"
                    }
                },
                {
                    "sampler" : 1,
                    "target" : {
                        "node" : 1,
                        "path" : "rotation"
                    }
                },
                {
                    "sampler" : 2,
                    "target" : {
                        "node" : 1,
                        "path" : "scale"
                    }
                }
            ],
            "name" : "Action.001",
            "samplers" : [
                {
                    "input" : 11,
                    "interpolation" : "LINEAR",
                    "output" : 12
                },
                {
                    "input" : 11,
                    "interpolation" : "LINEAR",
                    "output" : 13
                },
                {
                    "input" : 11,
                    "interpolation" : "LINEAR",
                    "output" : 14
                }
            ]
        }
    ],
    "materials" : [
        {
            "doubleSided" : true,
            "name" : "mat_mat",
            "pbrMetallicRoughness" : {}
        },
        {
            "name" : "sky",
            "pbrMetallicRoughness" : {
                "baseColorFactor" : [
                    1,
                    1,
                    1,
                    1
                ],
                "metallicFactor" : 1,
                "roughnessFactor" : 1
            }
        }
    ],
    "meshes" : [
        {
            "name" : "Sphere",
            "primitives" : [
                {
                    "attributes" : {
                        "POSITION" : 0,
                        "NORMAL" : 1,
                        "TANGENT" : 2,
                        "TEXCOORD_0" : 3
                    },
                    "indices" : 4,
                    "material" : 0
                }
            ]
        },
        {
            "name" : "g_sky",
            "primitives" : [
                {
                    "attributes" : {
                        "POSITION" : 5,
                        "NORMAL" : 6,
                        "TANGENT" : 7,
                        "TEXCOORD_0" : 8,
                        "TEXCOORD_1" : 9
                    },
                    "indices" : 10,
                    "material" : 1
                }
            ]
        }
    ],
    "accessors" : [
        {
            "bufferView" : 0,
            "componentType" : 5126,
            "count" : 193,
            "max" : [
                184.77589416503906,
                184.7759552001953,
                5.3670501708984375
            ],
            "min" : [
                -184.77581787109375,
                -184.77589416503906,
                -6.979286193847656
            ],
            "type" : "VEC3"
        },
        {
            "bufferView" : 1,
            "componentType" : 5126,
            "count" : 193,
            "type" : "VEC3"
        },
        {
            "bufferView" : 2,
            "componentType" : 5126,
            "count" : 193,
            "type" : "VEC4"
        },
        {
            "bufferView" : 3,
            "componentType" : 5126,
            "count" : 193,
            "type" : "VEC2"
        },
        {
            "bufferView" : 4,
            "componentType" : 5123,
            "count" : 1056,
            "type" : "SCALAR"
        },
        {
            "bufferView" : 5,
            "componentType" : 5126,
            "count" : 620,
            "max" : [
                2150.997802734375,
                2150.997802734375,
                1877.679443359375
            ],
            "min" : [
                -2150.997802734375,
                -2150.998046875,
                -1877.679443359375
            ],
            "type" : "VEC3"
        },
        {
            "bufferView" : 6,
            "componentType" : 5126,
            "count" : 620,
            "type" : "VEC3"
        },
        {
            "bufferView" : 7,
            "componentType" : 5126,
            "count" : 620,
            "type" : "VEC4"
        },
        {
            "bufferView" : 8,
            "componentType" : 5126,
            "count" : 620,
            "type" : "VEC2"
        },
        {
            "bufferView" : 9,
            "componentType" : 5126,
            "count" : 620,
            "type" : "VEC2"
        },
        {
            "bufferView" : 10,
            "componentType" : 5123,
            "count" : 2994,
            "type" : "SCALAR"
        },
        {
            "bufferView" : 11,
            "componentType" : 5126,
            "count" : 600,
            "max" : [
                10
            ],
            "min" : [
                0.016666666666666666
            ],
            "type" : "SCALAR"
        },
        {
            "bufferView" : 12,
            "componentType" : 5126,
            "count" : 600,
            "type" : "VEC3"
        },
        {
            "bufferView" : 13,
            "componentType" : 5126,
            "count" : 600,
            "type" : "VEC4"
        },
        {
            "bufferView" : 14,
            "componentType" : 5126,
            "count" : 600,
            "type" : "VEC3"
        }
    ],
    "bufferViews" : [
        {
            "buffer" : 0,
            "byteLength" : 2316,
            "byteOffset" : 0
        },
        {
            "buffer" : 0,
            "byteLength" : 2316,
            "byteOffset" : 2316
        },
        {
            "buffer" : 0,
            "byteLength" : 3088,
            "byteOffset" : 4632
        },
        {
            "buffer" : 0,
            "byteLength" : 1544,
            "byteOffset" : 7720
        },
        {
            "buffer" : 0,
            "byteLength" : 2112,
            "byteOffset" : 9264
        },
        {
            "buffer" : 0,
            "byteLength" : 7440,
            "byteOffset" : 11376
        },
        {
            "buffer" : 0,
            "byteLength" : 7440,
            "byteOffset" : 18816
        },
        {
            "buffer" : 0,
            "byteLength" : 9920,
            "byteOffset" : 26256
        },
        {
            "buffer" : 0,
            "byteLength" : 4960,
            "byteOffset" : 36176
        },
        {
            "buffer" : 0,
            "byteLength" : 4960,
            "byteOffset" : 41136
        },
        {
            "buffer" : 0,
            "byteLength" : 5988,
            "byteOffset" : 46096
        },
        {
            "buffer" : 0,
            "byteLength" : 2400,
            "byteOffset" : 52084
        },
        {
            "buffer" : 0,
            "byteLength" : 7200,
            "byteOffset" : 54484
        },
        {
            "buffer" : 0,
            "byteLength" : 9600,
            "byteOffset" : 61684
        },
        {
            "buffer" : 0,
            "byteLength" : 7200,
            "byteOffset" : 71284
        }
    ],
    "buffers" : [
        {
            "byteLength" : 78484,
            "uri" : "data:application/octet-stream;base64,"
        }
    ]
}
