{
    "asset" : {
        "generator" : "Khronos glTF Blender I/O v1.0.5",
        "version" : "2.0"
    },
    "scene" : 0,
    "scenes" : [
        {
            "extras" : {
                "glTF2ExportSettings" : {
                    "export_all_influences" : 0,
                    "export_animations" : 1,
                    "export_apply" : 1,
                    "export_cameras" : 1,
                    "export_colors" : 1,
                    "export_copyright" : "",
                    "export_current_frame" : 0,
                    "export_displacement" : 0,
                    "export_draco_mesh_compression_enable" : 0,
                    "export_draco_mesh_compression_level" : 6,
                    "export_draco_normal_quantization" : 10,
                    "export_draco_position_quantization" : 14,
                    "export_draco_texcoord_quantization" : 12,
                    "export_extras" : 1,
                    "export_force_sampling" : 1,
                    "export_format" : "GLTF_EMBEDDED",
                    "export_frame_range" : 1,
                    "export_frame_step" : 1,
                    "export_image_format" : "NAME",
                    "export_lights" : 1,
                    "export_materials" : 1,
                    "export_morph" : 1,
                    "export_morph_normal" : 1,
                    "export_morph_tangent" : 0,
                    "export_nla_strips" : 1,
                    "export_normals" : 1,
                    "export_selected" : 1,
                    "export_skins" : 1,
                    "export_tangents" : 1,
                    "export_texcoords" : 1,
                    "export_yup" : 0
                }
            },
            "name" : "Scene",
            "nodes" : [
                5
            ]
        }
    ],
    "nodes" : [
        {
            "mesh" : 0,
            "name" : "g_chain_001",
            "rotation" : [
                0.7071067690849304,
                0,
                0,
                0.7071068286895752
            ],
            "translation" : [
                1.4927353858947754,
                0.0010574358748272061,
                1.4968969821929932
            ]
        },
        {
            "mesh" : 1,
            "name" : "g_chain_002",
            "rotation" : [
                0.7071067690849304,
                0,
                0,
                0.7071068286895752
            ],
            "translation" : [
                4.492735385894775,
                0.0010574358748272061,
                1.4968969821929932
            ]
        },
        {
            "extras" : {},
            "mesh" : 2,
            "name" : "g_post_001",
            "translation" : [
                0,
                0,
                1.2985143661499023
            ]
        },
        {
            "extras" : {},
            "mesh" : 3,
            "name" : "g_post_002",
            "translation" : [
                3,
                0,
                1.2985143661499023
            ]
        },
        {
            "extras" : {},
            "mesh" : 4,
            "name" : "g_post_003",
            "translation" : [
                6,
                0,
                1.2985143661499023
            ]
        },
        {
            "children" : [
                0,
                1,
                2,
                3,
                4
            ],
            "name" : "rp_fence"
        }
    ],
    "materials" : [
        {
            "alphaCutoff" : 0.5,
            "alphaMode" : "MASK",
            "name" : "mat_chainlink",
            "pbrMetallicRoughness" : {}
        },
        {
            "name" : "mat_metal",
            "pbrMetallicRoughness" : {}
        }
    ],
    "meshes" : [
        {
            "name" : "Plane",
            "primitives" : [
                {
                    "attributes" : {
                        "POSITION" : 0,
                        "NORMAL" : 1,
                        "TEXCOORD_0" : 2
                    },
                    "indices" : 3,
                    "material" : 0
                }
            ]
        },
        {
            "name" : "Plane.001",
            "primitives" : [
                {
                    "attributes" : {
                        "POSITION" : 4,
                        "NORMAL" : 5,
                        "TEXCOORD_0" : 6
                    },
                    "indices" : 7,
                    "material" : 0
                }
            ]
        },
        {
            "name" : "g_g",
            "primitives" : [
                {
                    "attributes" : {
                        "POSITION" : 8,
                        "NORMAL" : 9,
                        "TANGENT" : 10,
                        "TEXCOORD_0" : 11,
                        "COLOR_0" : 12
                    },
                    "indices" : 13,
                    "material" : 1
                }
            ]
        },
        {
            "name" : "g_g.001",
            "primitives" : [
                {
                    "attributes" : {
                        "POSITION" : 14,
                        "NORMAL" : 15,
                        "TANGENT" : 16,
                        "TEXCOORD_0" : 17,
                        "COLOR_0" : 18
                    },
                    "indices" : 13,
                    "material" : 1
                }
            ]
        },
        {
            "name" : "g_g.002",
            "primitives" : [
                {
                    "attributes" : {
                        "POSITION" : 19,
                        "NORMAL" : 20,
                        "TANGENT" : 21,
                        "TEXCOORD_0" : 22,
                        "COLOR_0" : 23
                    },
                    "indices" : 13,
                    "material" : 1
                }
            ]
        }
    ],
    "accessors" : [
        {
            "bufferView" : 0,
            "componentType" : 5126,
            "count" : 66,
            "max" : [
                1.5072646141052246,
                1.2139214277267456,
                0.059661414474248886
            ],
            "min" : [
                -1.4927353858947754,
                -1.4807305335998535,
                -0.06361786276102066
            ],
            "type" : "VEC3"
        },
        {
            "bufferView" : 1,
            "componentType" : 5126,
            "count" : 66,
            "type" : "VEC3"
        },
        {
            "bufferView" : 2,
            "componentType" : 5126,
            "count" : 66,
            "type" : "VEC2"
        },
        {
            "bufferView" : 3,
            "componentType" : 5123,
            "count" : 114,
            "type" : "SCALAR"
        },
        {
            "bufferView" : 4,
            "componentType" : 5126,
            "count" : 52,
            "max" : [
                1.5072646141052246,
                1.2072701454162598,
                0.05966142192482948
            ],
            "min" : [
                -1.4927353858947754,
                -1.433404803276062,
                -0.06361787021160126
            ],
            "type" : "VEC3"
        },
        {
            "bufferView" : 5,
            "componentType" : 5126,
            "count" : 52,
            "type" : "VEC3"
        },
        {
            "bufferView" : 6,
            "componentType" : 5126,
            "count" : 52,
            "type" : "VEC2"
        },
        {
            "bufferView" : 7,
            "componentType" : 5123,
            "count" : 84,
            "type" : "SCALAR"
        },
        {
            "bufferView" : 8,
            "componentType" : 5126,
            "count" : 30,
            "max" : [
                0.040000010281801224,
                0.040000010281801224,
                1.4800002574920654
            ],
            "min" : [
                -0.040000010281801224,
                -0.040000010281801224,
                -1.4800004959106445
            ],
            "type" : "VEC3"
        },
        {
            "bufferView" : 9,
            "componentType" : 5126,
            "count" : 30,
            "type" : "VEC3"
        },
        {
            "bufferView" : 10,
            "componentType" : 5126,
            "count" : 30,
            "type" : "VEC4"
        },
        {
            "bufferView" : 11,
            "componentType" : 5126,
            "count" : 30,
            "type" : "VEC2"
        },
        {
            "bufferView" : 12,
            "componentType" : 5126,
            "count" : 30,
            "type" : "VEC4"
        },
        {
            "bufferView" : 13,
            "componentType" : 5123,
            "count" : 132,
            "type" : "SCALAR"
        },
        {
            "bufferView" : 14,
            "componentType" : 5126,
            "count" : 30,
            "max" : [
                0.040000010281801224,
                0.040000010281801224,
                1.4800002574920654
            ],
            "min" : [
                -0.040000010281801224,
                -0.040000010281801224,
                -1.4800004959106445
            ],
            "type" : "VEC3"
        },
        {
            "bufferView" : 15,
            "componentType" : 5126,
            "count" : 30,
            "type" : "VEC3"
        },
        {
            "bufferView" : 16,
            "componentType" : 5126,
            "count" : 30,
            "type" : "VEC4"
        },
        {
            "bufferView" : 17,
            "componentType" : 5126,
            "count" : 30,
            "type" : "VEC2"
        },
        {
            "bufferView" : 18,
            "componentType" : 5126,
            "count" : 30,
            "type" : "VEC4"
        },
        {
            "bufferView" : 19,
            "componentType" : 5126,
            "count" : 30,
            "max" : [
                0.040000010281801224,
                0.040000010281801224,
                1.4800002574920654
            ],
            "min" : [
                -0.040000010281801224,
                -0.040000010281801224,
                -1.4800004959106445
            ],
            "type" : "VEC3"
        },
        {
            "bufferView" : 20,
            "componentType" : 5126,
            "count" : 30,
            "type" : "VEC3"
        },
        {
            "bufferView" : 21,
            "componentType" : 5126,
            "count" : 30,
            "type" : "VEC4"
        },
        {
            "bufferView" : 22,
            "componentType" : 5126,
            "count" : 30,
            "type" : "VEC2"
        },
        {
            "bufferView" : 23,
            "componentType" : 5126,
            "count" : 30,
            "type" : "VEC4"
        }
    ],
    "bufferViews" : [
        {
            "buffer" : 0,
            "byteLength" : 792,
            "byteOffset" : 0
        },
        {
            "buffer" : 0,
            "byteLength" : 792,
            "byteOffset" : 792
        },
        {
            "buffer" : 0,
            "byteLength" : 528,
            "byteOffset" : 1584
        },
        {
            "buffer" : 0,
            "byteLength" : 228,
            "byteOffset" : 2112
        },
        {
            "buffer" : 0,
            "byteLength" : 624,
            "byteOffset" : 2340
        },
        {
            "buffer" : 0,
            "byteLength" : 624,
            "byteOffset" : 2964
        },
        {
            "buffer" : 0,
            "byteLength" : 416,
            "byteOffset" : 3588
        },
        {
            "buffer" : 0,
            "byteLength" : 168,
            "byteOffset" : 4004
        },
        {
            "buffer" : 0,
            "byteLength" : 360,
            "byteOffset" : 4172
        },
        {
            "buffer" : 0,
            "byteLength" : 360,
            "byteOffset" : 4532
        },
        {
            "buffer" : 0,
            "byteLength" : 480,
            "byteOffset" : 4892
        },
        {
            "buffer" : 0,
            "byteLength" : 240,
            "byteOffset" : 5372
        },
        {
            "buffer" : 0,
            "byteLength" : 480,
            "byteOffset" : 5612
        },
        {
            "buffer" : 0,
            "byteLength" : 264,
            "byteOffset" : 6092
        },
        {
            "buffer" : 0,
            "byteLength" : 360,
            "byteOffset" : 6356
        },
        {
            "buffer" : 0,
            "byteLength" : 360,
            "byteOffset" : 6716
        },
        {
            "buffer" : 0,
            "byteLength" : 480,
            "byteOffset" : 7076
        },
        {
            "buffer" : 0,
            "byteLength" : 240,
            "byteOffset" : 7556
        },
        {
            "buffer" : 0,
            "byteLength" : 480,
            "byteOffset" : 7796
        },
        {
            "buffer" : 0,
            "byteLength" : 360,
            "byteOffset" : 8276
        },
        {
            "buffer" : 0,
            "byteLength" : 360,
            "byteOffset" : 8636
        },
        {
            "buffer" : 0,
            "byteLength" : 480,
            "byteOffset" : 8996
        },
        {
            "buffer" : 0,
            "byteLength" : 240,
            "byteOffset" : 9476
        },
        {
            "buffer" : 0,
            "byteLength" : 480,
            "byteOffset" : 9716
        }
    ],
    "buffers" : [
        {
            "byteLength" : 10196,
            "uri" : "data:application/octet-stream;base64,"
        }
    ]
}
