{
    "asset" : {
        "generator" : "Khronos glTF Blender I/O v1.0.5",
        "version" : "2.0"
    },
    "scene" : 0,
    "scenes" : [
        {
            "extras" : {
                "glTF2ExportSettings" : {
                    "export_all_influences" : 0,
                    "export_animations" : 1,
                    "export_apply" : 1,
                    "export_cameras" : 1,
                    "export_colors" : 1,
                    "export_copyright" : "",
                    "export_current_frame" : 0,
                    "export_displacement" : 0,
                    "export_draco_mesh_compression_enable" : 0,
                    "export_draco_mesh_compression_level" : 6,
                    "export_draco_normal_quantization" : 10,
                    "export_draco_position_quantization" : 14,
                    "export_draco_texcoord_quantization" : 12,
                    "export_extras" : 1,
                    "export_force_sampling" : 1,
                    "export_format" : "GLTF_EMBEDDED",
                    "export_frame_range" : 1,
                    "export_frame_step" : 1,
                    "export_image_format" : "NAME",
                    "export_lights" : 1,
                    "export_materials" : 1,
                    "export_morph" : 1,
                    "export_morph_normal" : 1,
                    "export_morph_tangent" : 0,
                    "export_nla_strips" : 1,
                    "export_normals" : 1,
                    "export_selected" : 1,
                    "export_skins" : 1,
                    "export_tangents" : 1,
                    "export_texcoords" : 1,
                    "export_yup" : 0
                }
            },
            "name" : "Scene",
            "nodes" : [
                3
            ]
        }
    ],
    "nodes" : [
        {
            "mesh" : 0,
            "name" : "g_chain_001",
            "rotation" : [
                0.7071067690849304,
                0,
                0,
                0.7071068286895752
            ],
            "translation" : [
                1.5,
                0,
                1.399999976158142
            ]
        },
        {
            "extras" : {},
            "mesh" : 1,
            "name" : "g_post_001"
        },
        {
            "extras" : {},
            "mesh" : 2,
            "name" : "g_post_002",
            "translation" : [
                3,
                0,
                0
            ]
        },
        {
            "children" : [
                0,
                1,
                2
            ],
            "name" : "rp_fence"
        }
    ],
    "materials" : [
        {
            "alphaCutoff" : 0.5,
            "alphaMode" : "MASK",
            "name" : "mat_chainlink",
            "pbrMetallicRoughness" : {}
        },
        {
            "name" : "mat_metal",
            "pbrMetallicRoughness" : {}
        }
    ],
    "meshes" : [
        {
            "name" : "Plane",
            "primitives" : [
                {
                    "attributes" : {
                        "POSITION" : 0,
                        "NORMAL" : 1,
                        "TEXCOORD_0" : 2
                    },
                    "indices" : 3,
                    "material" : 0
                }
            ]
        },
        {
            "name" : "g_g",
            "primitives" : [
                {
                    "attributes" : {
                        "POSITION" : 4,
                        "NORMAL" : 5,
                        "TANGENT" : 6,
                        "TEXCOORD_0" : 7,
                        "COLOR_0" : 8
                    },
                    "indices" : 9,
                    "material" : 1
                }
            ]
        },
        {
            "name" : "g_g.001",
            "primitives" : [
                {
                    "attributes" : {
                        "POSITION" : 10,
                        "NORMAL" : 11,
                        "TANGENT" : 12,
                        "TEXCOORD_0" : 13,
                        "COLOR_0" : 14
                    },
                    "indices" : 9,
                    "material" : 1
                }
            ]
        }
    ],
    "accessors" : [
        {
            "bufferView" : 0,
            "componentType" : 5126,
            "count" : 66,
            "max" : [
                1.5,
                1.3108184337615967,
                0.05860398709774017
            ],
            "min" : [
                -1.5,
                -1.3838335275650024,
                -0.06467529386281967
            ],
            "type" : "VEC3"
        },
        {
            "bufferView" : 1,
            "componentType" : 5126,
            "count" : 66,
            "type" : "VEC3"
        },
        {
            "bufferView" : 2,
            "componentType" : 5126,
            "count" : 66,
            "type" : "VEC2"
        },
        {
            "bufferView" : 3,
            "componentType" : 5123,
            "count" : 114,
            "type" : "SCALAR"
        },
        {
            "bufferView" : 4,
            "componentType" : 5126,
            "count" : 30,
            "max" : [
                0.040000010281801224,
                0.040000010281801224,
                2.7785146236419678
            ],
            "min" : [
                -0.040000010281801224,
                -0.040000010281801224,
                -0.1814861297607422
            ],
            "type" : "VEC3"
        },
        {
            "bufferView" : 5,
            "componentType" : 5126,
            "count" : 30,
            "type" : "VEC3"
        },
        {
            "bufferView" : 6,
            "componentType" : 5126,
            "count" : 30,
            "type" : "VEC4"
        },
        {
            "bufferView" : 7,
            "componentType" : 5126,
            "count" : 30,
            "type" : "VEC2"
        },
        {
            "bufferView" : 8,
            "componentType" : 5126,
            "count" : 30,
            "type" : "VEC4"
        },
        {
            "bufferView" : 9,
            "componentType" : 5123,
            "count" : 132,
            "type" : "SCALAR"
        },
        {
            "bufferView" : 10,
            "componentType" : 5126,
            "count" : 30,
            "max" : [
                0.040000010281801224,
                0.040000010281801224,
                2.7785146236419678
            ],
            "min" : [
                -0.040000010281801224,
                -0.040000010281801224,
                -0.1814861297607422
            ],
            "type" : "VEC3"
        },
        {
            "bufferView" : 11,
            "componentType" : 5126,
            "count" : 30,
            "type" : "VEC3"
        },
        {
            "bufferView" : 12,
            "componentType" : 5126,
            "count" : 30,
            "type" : "VEC4"
        },
        {
            "bufferView" : 13,
            "componentType" : 5126,
            "count" : 30,
            "type" : "VEC2"
        },
        {
            "bufferView" : 14,
            "componentType" : 5126,
            "count" : 30,
            "type" : "VEC4"
        }
    ],
    "bufferViews" : [
        {
            "buffer" : 0,
            "byteLength" : 792,
            "byteOffset" : 0
        },
        {
            "buffer" : 0,
            "byteLength" : 792,
            "byteOffset" : 792
        },
        {
            "buffer" : 0,
            "byteLength" : 528,
            "byteOffset" : 1584
        },
        {
            "buffer" : 0,
            "byteLength" : 228,
            "byteOffset" : 2112
        },
        {
            "buffer" : 0,
            "byteLength" : 360,
            "byteOffset" : 2340
        },
        {
            "buffer" : 0,
            "byteLength" : 360,
            "byteOffset" : 2700
        },
        {
            "buffer" : 0,
            "byteLength" : 480,
            "byteOffset" : 3060
        },
        {
            "buffer" : 0,
            "byteLength" : 240,
            "byteOffset" : 3540
        },
        {
            "buffer" : 0,
            "byteLength" : 480,
            "byteOffset" : 3780
        },
        {
            "buffer" : 0,
            "byteLength" : 264,
            "byteOffset" : 4260
        },
        {
            "buffer" : 0,
            "byteLength" : 360,
            "byteOffset" : 4524
        },
        {
            "buffer" : 0,
            "byteLength" : 360,
            "byteOffset" : 4884
        },
        {
            "buffer" : 0,
            "byteLength" : 480,
            "byteOffset" : 5244
        },
        {
            "buffer" : 0,
            "byteLength" : 240,
            "byteOffset" : 5724
        },
        {
            "buffer" : 0,
            "byteLength" : 480,
            "byteOffset" : 5964
        }
    ],
    "buffers" : [
        {
            "byteLength" : 6444,
            "uri" : "data:application/octet-stream;base64,"
        }
    ]
}
