{
    "asset" : {
        "generator" : "Khronos glTF Blender I/O v1.0.5",
        "version" : "2.0"
    },
    "scene" : 0,
    "scenes" : [
        {
            "extras" : {
                "glTF2ExportSettings" : {
                    "export_all_influences" : 0,
                    "export_animations" : 1,
                    "export_apply" : 1,
                    "export_cameras" : 1,
                    "export_colors" : 1,
                    "export_copyright" : "",
                    "export_current_frame" : 0,
                    "export_displacement" : 0,
                    "export_draco_mesh_compression_enable" : 0,
                    "export_draco_mesh_compression_level" : 6,
                    "export_draco_normal_quantization" : 10,
                    "export_draco_position_quantization" : 14,
                    "export_draco_texcoord_quantization" : 12,
                    "export_extras" : 1,
                    "export_force_sampling" : 1,
                    "export_format" : "GLTF_EMBEDDED",
                    "export_frame_range" : 1,
                    "export_frame_step" : 1,
                    "export_image_format" : "NAME",
                    "export_lights" : 1,
                    "export_materials" : 1,
                    "export_morph" : 1,
                    "export_morph_normal" : 1,
                    "export_morph_tangent" : 0,
                    "export_nla_strips" : 1,
                    "export_normals" : 1,
                    "export_selected" : 1,
                    "export_skins" : 1,
                    "export_tangents" : 1,
                    "export_texcoords" : 1,
                    "export_yup" : 0
                }
            },
            "name" : "Scene",
            "nodes" : [
                3
            ]
        }
    ],
    "nodes" : [
        {
            "extras" : {},
            "mesh" : 0,
            "name" : "g_landscape_lod0",
            "translation" : [
                -150,
                -150,
                50
            ]
        },
        {
            "extras" : {},
            "mesh" : 1,
            "name" : "g_landscape_lod1",
            "translation" : [
                -150,
                -150,
                50
            ]
        },
        {
            "extras" : {},
            "mesh" : 2,
            "name" : "g_landscape_lod2",
            "translation" : [
                -150,
                -150,
                50
            ]
        },
        {
            "children" : [
                0,
                1,
                2
            ],
            "extras" : {},
            "name" : "rp_landscape"
        }
    ],
    "materials" : [
        {
            "name" : "mat_mat",
            "pbrMetallicRoughness" : {}
        }
    ],
    "meshes" : [
        {
            "name" : "Plane.004",
            "primitives" : [
                {
                    "attributes" : {
                        "POSITION" : 0,
                        "NORMAL" : 1,
                        "TANGENT" : 2,
                        "TEXCOORD_0" : 3,
                        "TEXCOORD_1" : 4
                    },
                    "indices" : 5,
                    "material" : 0
                }
            ]
        },
        {
            "name" : "Plane.004",
            "primitives" : [
                {
                    "attributes" : {
                        "POSITION" : 6,
                        "NORMAL" : 7,
                        "TANGENT" : 8,
                        "TEXCOORD_0" : 9,
                        "TEXCOORD_1" : 10
                    },
                    "indices" : 11,
                    "material" : 0
                }
            ]
        },
        {
            "name" : "Plane.004",
            "primitives" : [
                {
                    "attributes" : {
                        "POSITION" : 12,
                        "NORMAL" : 13,
                        "TANGENT" : 14,
                        "TEXCOORD_0" : 15,
                        "TEXCOORD_1" : 16
                    },
                    "indices" : 17,
                    "material" : 0
                }
            ]
        }
    ],
    "accessors" : [
        {
            "bufferView" : 0,
            "componentType" : 5126,
            "count" : 6730,
            "max" : [
                50.00304412841797,
                50.00478744506836,
                23.94799041748047
            ],
            "min" : [
                -50.004417419433594,
                -50.00303268432617,
                -22.791250228881836
            ],
            "type" : "VEC3"
        },
        {
            "bufferView" : 1,
            "componentType" : 5126,
            "count" : 6730,
            "type" : "VEC3"
        },
        {
            "bufferView" : 2,
            "componentType" : 5126,
            "count" : 6730,
            "type" : "VEC4"
        },
        {
            "bufferView" : 3,
            "componentType" : 5126,
            "count" : 6730,
            "type" : "VEC2"
        },
        {
            "bufferView" : 4,
            "componentType" : 5126,
            "count" : 6730,
            "type" : "VEC2"
        },
        {
            "bufferView" : 5,
            "componentType" : 5123,
            "count" : 39318,
            "type" : "SCALAR"
        },
        {
            "bufferView" : 6,
            "componentType" : 5126,
            "count" : 289,
            "max" : [
                50.00000762939453,
                50.00000762939453,
                23.76863670349121
            ],
            "min" : [
                -50.00000762939453,
                -50.00000762939453,
                -22.598365783691406
            ],
            "type" : "VEC3"
        },
        {
            "bufferView" : 7,
            "componentType" : 5126,
            "count" : 289,
            "type" : "VEC3"
        },
        {
            "bufferView" : 8,
            "componentType" : 5126,
            "count" : 289,
            "type" : "VEC4"
        },
        {
            "bufferView" : 9,
            "componentType" : 5126,
            "count" : 289,
            "type" : "VEC2"
        },
        {
            "bufferView" : 10,
            "componentType" : 5126,
            "count" : 289,
            "type" : "VEC2"
        },
        {
            "bufferView" : 11,
            "componentType" : 5123,
            "count" : 1536,
            "type" : "SCALAR"
        },
        {
            "bufferView" : 12,
            "componentType" : 5126,
            "count" : 25,
            "max" : [
                50.00000762939453,
                50.00000762939453,
                22.213069915771484
            ],
            "min" : [
                -50.00000762939453,
                -50.00000762939453,
                -22.308378219604492
            ],
            "type" : "VEC3"
        },
        {
            "bufferView" : 13,
            "componentType" : 5126,
            "count" : 25,
            "type" : "VEC3"
        },
        {
            "bufferView" : 14,
            "componentType" : 5126,
            "count" : 25,
            "type" : "VEC4"
        },
        {
            "bufferView" : 15,
            "componentType" : 5126,
            "count" : 25,
            "type" : "VEC2"
        },
        {
            "bufferView" : 16,
            "componentType" : 5126,
            "count" : 25,
            "type" : "VEC2"
        },
        {
            "bufferView" : 17,
            "componentType" : 5123,
            "count" : 96,
            "type" : "SCALAR"
        }
    ],
    "bufferViews" : [
        {
            "buffer" : 0,
            "byteLength" : 80760,
            "byteOffset" : 0
        },
        {
            "buffer" : 0,
            "byteLength" : 80760,
            "byteOffset" : 80760
        },
        {
            "buffer" : 0,
            "byteLength" : 107680,
            "byteOffset" : 161520
        },
        {
            "buffer" : 0,
            "byteLength" : 53840,
            "byteOffset" : 269200
        },
        {
            "buffer" : 0,
            "byteLength" : 53840,
            "byteOffset" : 323040
        },
        {
            "buffer" : 0,
            "byteLength" : 78636,
            "byteOffset" : 376880
        },
        {
            "buffer" : 0,
            "byteLength" : 3468,
            "byteOffset" : 455516
        },
        {
            "buffer" : 0,
            "byteLength" : 3468,
            "byteOffset" : 458984
        },
        {
            "buffer" : 0,
            "byteLength" : 4624,
            "byteOffset" : 462452
        },
        {
            "buffer" : 0,
            "byteLength" : 2312,
            "byteOffset" : 467076
        },
        {
            "buffer" : 0,
            "byteLength" : 2312,
            "byteOffset" : 469388
        },
        {
            "buffer" : 0,
            "byteLength" : 3072,
            "byteOffset" : 471700
        },
        {
            "buffer" : 0,
            "byteLength" : 300,
            "byteOffset" : 474772
        },
        {
            "buffer" : 0,
            "byteLength" : 300,
            "byteOffset" : 475072
        },
        {
            "buffer" : 0,
            "byteLength" : 400,
            "byteOffset" : 475372
        },
        {
            "buffer" : 0,
            "byteLength" : 200,
            "byteOffset" : 475772
        },
        {
            "buffer" : 0,
            "byteLength" : 200,
            "byteOffset" : 475972
        },
        {
            "buffer" : 0,
            "byteLength" : 192,
            "byteOffset" : 476172
        }
    ],
    "buffers" : [
        {
            "byteLength" : 476364,
            "uri" : "data:application/octet-stream;base64,"
        }
    ]
}
