{
    "asset" : {
        "generator" : "Khronos glTF Blender I/O v1.0.5",
        "version" : "2.0"
    },
    "scene" : 0,
    "scenes" : [
        {
            "extras" : {
                "glTF2ExportSettings" : {
                    "export_all_influences" : 0,
                    "export_animations" : 1,
                    "export_apply" : 1,
                    "export_cameras" : 1,
                    "export_colors" : 1,
                    "export_copyright" : "",
                    "export_current_frame" : 0,
                    "export_displacement" : 0,
                    "export_draco_mesh_compression_enable" : 0,
                    "export_draco_mesh_compression_level" : 6,
                    "export_draco_normal_quantization" : 10,
                    "export_draco_position_quantization" : 14,
                    "export_draco_texcoord_quantization" : 12,
                    "export_extras" : 1,
                    "export_force_sampling" : 1,
                    "export_format" : "GLTF_EMBEDDED",
                    "export_frame_range" : 1,
                    "export_frame_step" : 1,
                    "export_image_format" : "NAME",
                    "export_lights" : 1,
                    "export_materials" : 1,
                    "export_morph" : 1,
                    "export_morph_normal" : 1,
                    "export_morph_tangent" : 0,
                    "export_nla_strips" : 1,
                    "export_normals" : 1,
                    "export_selected" : 1,
                    "export_skins" : 1,
                    "export_tangents" : 1,
                    "export_texcoords" : 1,
                    "export_yup" : 0
                }
            },
            "name" : "Scene",
            "nodes" : [
                3
            ]
        }
    ],
    "nodes" : [
        {
            "extras" : {},
            "mesh" : 0,
            "name" : "g_landscape_lod0",
            "translation" : [
                -50,
                -50,
                100
            ]
        },
        {
            "extras" : {},
            "mesh" : 1,
            "name" : "g_landscape_lod1",
            "translation" : [
                -50,
                -50,
                100
            ]
        },
        {
            "extras" : {},
            "mesh" : 2,
            "name" : "g_landscape_lod2",
            "translation" : [
                -50,
                -50,
                100
            ]
        },
        {
            "children" : [
                0,
                1,
                2
            ],
            "extras" : {},
            "name" : "rp_landscape"
        }
    ],
    "materials" : [
        {
            "name" : "mat_mat",
            "pbrMetallicRoughness" : {}
        }
    ],
    "meshes" : [
        {
            "name" : "Plane.004",
            "primitives" : [
                {
                    "attributes" : {
                        "POSITION" : 0,
                        "NORMAL" : 1,
                        "TANGENT" : 2,
                        "TEXCOORD_0" : 3,
                        "TEXCOORD_1" : 4
                    },
                    "indices" : 5,
                    "material" : 0
                }
            ]
        },
        {
            "name" : "Plane.004",
            "primitives" : [
                {
                    "attributes" : {
                        "POSITION" : 6,
                        "NORMAL" : 7,
                        "TANGENT" : 8,
                        "TEXCOORD_0" : 9,
                        "TEXCOORD_1" : 10
                    },
                    "indices" : 11,
                    "material" : 0
                }
            ]
        },
        {
            "name" : "Plane.004",
            "primitives" : [
                {
                    "attributes" : {
                        "POSITION" : 12,
                        "NORMAL" : 13,
                        "TANGENT" : 14,
                        "TEXCOORD_0" : 15,
                        "TEXCOORD_1" : 16
                    },
                    "indices" : 17,
                    "material" : 0
                }
            ]
        }
    ],
    "accessors" : [
        {
            "bufferView" : 0,
            "componentType" : 5126,
            "count" : 16641,
            "max" : [
                50.00000762939453,
                50.00000762939453,
                -36.42964553833008
            ],
            "min" : [
                -50.00000762939453,
                -50.00000762939453,
                -80.03178405761719
            ],
            "type" : "VEC3"
        },
        {
            "bufferView" : 1,
            "componentType" : 5126,
            "count" : 16641,
            "type" : "VEC3"
        },
        {
            "bufferView" : 2,
            "componentType" : 5126,
            "count" : 16641,
            "type" : "VEC4"
        },
        {
            "bufferView" : 3,
            "componentType" : 5126,
            "count" : 16641,
            "type" : "VEC2"
        },
        {
            "bufferView" : 4,
            "componentType" : 5126,
            "count" : 16641,
            "type" : "VEC2"
        },
        {
            "bufferView" : 5,
            "componentType" : 5123,
            "count" : 98304,
            "type" : "SCALAR"
        },
        {
            "bufferView" : 6,
            "componentType" : 5126,
            "count" : 289,
            "max" : [
                50.00000762939453,
                50.00000762939453,
                -36.917457580566406
            ],
            "min" : [
                -50.00000762939453,
                -50.00000762939453,
                -80.03178405761719
            ],
            "type" : "VEC3"
        },
        {
            "bufferView" : 7,
            "componentType" : 5126,
            "count" : 289,
            "type" : "VEC3"
        },
        {
            "bufferView" : 8,
            "componentType" : 5126,
            "count" : 289,
            "type" : "VEC4"
        },
        {
            "bufferView" : 9,
            "componentType" : 5126,
            "count" : 289,
            "type" : "VEC2"
        },
        {
            "bufferView" : 10,
            "componentType" : 5126,
            "count" : 289,
            "type" : "VEC2"
        },
        {
            "bufferView" : 11,
            "componentType" : 5123,
            "count" : 1536,
            "type" : "SCALAR"
        },
        {
            "bufferView" : 12,
            "componentType" : 5126,
            "count" : 25,
            "max" : [
                50.00000762939453,
                50.00000762939453,
                -40.017635345458984
            ],
            "min" : [
                -50.00000762939453,
                -50.00000762939453,
                -80.03178405761719
            ],
            "type" : "VEC3"
        },
        {
            "bufferView" : 13,
            "componentType" : 5126,
            "count" : 25,
            "type" : "VEC3"
        },
        {
            "bufferView" : 14,
            "componentType" : 5126,
            "count" : 25,
            "type" : "VEC4"
        },
        {
            "bufferView" : 15,
            "componentType" : 5126,
            "count" : 25,
            "type" : "VEC2"
        },
        {
            "bufferView" : 16,
            "componentType" : 5126,
            "count" : 25,
            "type" : "VEC2"
        },
        {
            "bufferView" : 17,
            "componentType" : 5123,
            "count" : 96,
            "type" : "SCALAR"
        }
    ],
    "bufferViews" : [
        {
            "buffer" : 0,
            "byteLength" : 199692,
            "byteOffset" : 0
        },
        {
            "buffer" : 0,
            "byteLength" : 199692,
            "byteOffset" : 199692
        },
        {
            "buffer" : 0,
            "byteLength" : 266256,
            "byteOffset" : 399384
        },
        {
            "buffer" : 0,
            "byteLength" : 133128,
            "byteOffset" : 665640
        },
        {
            "buffer" : 0,
            "byteLength" : 133128,
            "byteOffset" : 798768
        },
        {
            "buffer" : 0,
            "byteLength" : 196608,
            "byteOffset" : 931896
        },
        {
            "buffer" : 0,
            "byteLength" : 3468,
            "byteOffset" : 1128504
        },
        {
            "buffer" : 0,
            "byteLength" : 3468,
            "byteOffset" : 1131972
        },
        {
            "buffer" : 0,
            "byteLength" : 4624,
            "byteOffset" : 1135440
        },
        {
            "buffer" : 0,
            "byteLength" : 2312,
            "byteOffset" : 1140064
        },
        {
            "buffer" : 0,
            "byteLength" : 2312,
            "byteOffset" : 1142376
        },
        {
            "buffer" : 0,
            "byteLength" : 3072,
            "byteOffset" : 1144688
        },
        {
            "buffer" : 0,
            "byteLength" : 300,
            "byteOffset" : 1147760
        },
        {
            "buffer" : 0,
            "byteLength" : 300,
            "byteOffset" : 1148060
        },
        {
            "buffer" : 0,
            "byteLength" : 400,
            "byteOffset" : 1148360
        },
        {
            "buffer" : 0,
            "byteLength" : 200,
            "byteOffset" : 1148760
        },
        {
            "buffer" : 0,
            "byteLength" : 200,
            "byteOffset" : 1148960
        },
        {
            "buffer" : 0,
            "byteLength" : 192,
            "byteOffset" : 1149160
        }
    ],
    "buffers" : [
        {
            "byteLength" : 1149352,
            "uri" : "data:application/octet-stream;base64,"
        }
    ]
}
