{
    "asset" : {
        "generator" : "Khronos glTF Blender I/O v1.0.5",
        "version" : "2.0"
    },
    "scene" : 0,
    "scenes" : [
        {
            "extras" : {
                "glTF2ExportSettings" : {
                    "export_all_influences" : 0,
                    "export_animations" : 1,
                    "export_apply" : 1,
                    "export_cameras" : 1,
                    "export_colors" : 1,
                    "export_copyright" : "",
                    "export_current_frame" : 0,
                    "export_displacement" : 0,
                    "export_draco_mesh_compression_enable" : 0,
                    "export_draco_mesh_compression_level" : 6,
                    "export_draco_normal_quantization" : 10,
                    "export_draco_position_quantization" : 14,
                    "export_draco_texcoord_quantization" : 12,
                    "export_extras" : 1,
                    "export_force_sampling" : 1,
                    "export_format" : "GLTF_EMBEDDED",
                    "export_frame_range" : 1,
                    "export_frame_step" : 1,
                    "export_image_format" : "NAME",
                    "export_lights" : 1,
                    "export_materials" : 1,
                    "export_morph" : 1,
                    "export_morph_normal" : 1,
                    "export_morph_tangent" : 0,
                    "export_nla_strips" : 1,
                    "export_normals" : 1,
                    "export_selected" : 1,
                    "export_skins" : 1,
                    "export_tangents" : 1,
                    "export_texcoords" : 1,
                    "export_yup" : 0
                }
            },
            "name" : "Scene",
            "nodes" : [
                2
            ]
        }
    ],
    "nodes" : [
        {
            "extras" : {
                "ant_landscape" : {
                    "ant_terrain_name" : "Landscape",
                    "at_cursor" : 1,
                    "smooth_mesh" : 1,
                    "tri_face" : 0,
                    "sphere_mesh" : 0,
                    "land_material" : "mat_mat",
                    "water_material" : "",
                    "texture_block" : "",
                    "subdivision_x" : 500,
                    "subdivision_y" : 500,
                    "mesh_size_x" : 1000,
                    "mesh_size_y" : 1000,
                    "mesh_size" : 2,
                    "random_seed" : 9,
                    "noise_offset_x" : 0,
                    "noise_offset_y" : 0,
                    "noise_offset_z" : 1,
                    "noise_size_x" : 100,
                    "noise_size_y" : 100,
                    "noise_size_z" : 1,
                    "noise_size" : 4,
                    "noise_type" : 14,
                    "basis_type" : 0,
                    "vl_basis_type" : 0,
                    "distortion" : 0.5,
                    "hard_noise" : 1,
                    "noise_depth" : 8,
                    "amplitude" : 0.4699999988079071,
                    "frequency" : 1.7100000381469727,
                    "dimension" : 1.0299999713897705,
                    "lacunarity" : 2,
                    "offset" : 1,
                    "gain" : 1,
                    "marble_bias" : 1,
                    "marble_sharp" : 5,
                    "marble_shape" : 3,
                    "height" : 100,
                    "height_invert" : 0,
                    "height_offset" : 0,
                    "maximum" : 4000,
                    "minimum" : -0.5,
                    "edge_falloff" : 3,
                    "edge_level" : 32,
                    "falloff_x" : 16,
                    "falloff_y" : 16,
                    "strata_type" : 0,
                    "strata" : 5,
                    "water_plane" : 0,
                    "water_level" : 0.009999999776482582,
                    "vert_group" : "",
                    "remove_double" : 0,
                    "fx_mixfactor" : 0,
                    "fx_mix_mode" : 0,
                    "fx_type" : 0,
                    "fx_bias" : 0,
                    "fx_turb" : 0,
                    "fx_depth" : 0,
                    "fx_frequency" : 1.5,
                    "fx_amplitude" : 0.5,
                    "fx_size" : 1,
                    "fx_loc_x" : 0,
                    "fx_loc_y" : 0,
                    "fx_height" : 0.5,
                    "fx_offset" : 0,
                    "fx_invert" : 0
                }
            },
            "mesh" : 0,
            "name" : "g_landscape_04_05_lod0",
            "translation" : [
                -100.42731475830078,
                100.1373519897461,
                24.86174774169922
            ]
        },
        {
            "extras" : {
                "ant_landscape" : {
                    "ant_terrain_name" : "Landscape",
                    "at_cursor" : 1,
                    "smooth_mesh" : 1,
                    "tri_face" : 0,
                    "sphere_mesh" : 0,
                    "land_material" : "mat_mat",
                    "water_material" : "",
                    "texture_block" : "",
                    "subdivision_x" : 500,
                    "subdivision_y" : 500,
                    "mesh_size_x" : 1000,
                    "mesh_size_y" : 1000,
                    "mesh_size" : 2,
                    "random_seed" : 9,
                    "noise_offset_x" : 0,
                    "noise_offset_y" : 0,
                    "noise_offset_z" : 1,
                    "noise_size_x" : 100,
                    "noise_size_y" : 100,
                    "noise_size_z" : 1,
                    "noise_size" : 4,
                    "noise_type" : 14,
                    "basis_type" : 0,
                    "vl_basis_type" : 0,
                    "distortion" : 0.5,
                    "hard_noise" : 1,
                    "noise_depth" : 8,
                    "amplitude" : 0.4699999988079071,
                    "frequency" : 1.7100000381469727,
                    "dimension" : 1.0299999713897705,
                    "lacunarity" : 2,
                    "offset" : 1,
                    "gain" : 1,
                    "marble_bias" : 1,
                    "marble_sharp" : 5,
                    "marble_shape" : 3,
                    "height" : 100,
                    "height_invert" : 0,
                    "height_offset" : 0,
                    "maximum" : 4000,
                    "minimum" : -0.5,
                    "edge_falloff" : 3,
                    "edge_level" : 32,
                    "falloff_x" : 16,
                    "falloff_y" : 16,
                    "strata_type" : 0,
                    "strata" : 5,
                    "water_plane" : 0,
                    "water_level" : 0.009999999776482582,
                    "vert_group" : "",
                    "remove_double" : 0,
                    "fx_mixfactor" : 0,
                    "fx_mix_mode" : 0,
                    "fx_type" : 0,
                    "fx_bias" : 0,
                    "fx_turb" : 0,
                    "fx_depth" : 0,
                    "fx_frequency" : 1.5,
                    "fx_amplitude" : 0.5,
                    "fx_size" : 1,
                    "fx_loc_x" : 0,
                    "fx_loc_y" : 0,
                    "fx_height" : 0.5,
                    "fx_offset" : 0,
                    "fx_invert" : 0
                }
            },
            "mesh" : 1,
            "name" : "g_landscape_04_05_lod1",
            "translation" : [
                -100.42731475830078,
                100.1373519897461,
                24.86174774169922
            ]
        },
        {
            "children" : [
                0,
                1
            ],
            "extras" : {},
            "name" : "rp_landscape"
        }
    ],
    "materials" : [
        {
            "name" : "mat_mat",
            "pbrMetallicRoughness" : {}
        }
    ],
    "meshes" : [
        {
            "name" : "g_landscape.020",
            "primitives" : [
                {
                    "attributes" : {
                        "POSITION" : 0,
                        "NORMAL" : 1,
                        "TANGENT" : 2,
                        "TEXCOORD_0" : 3,
                        "TEXCOORD_1" : 4,
                        "COLOR_0" : 5
                    },
                    "indices" : 6,
                    "material" : 0
                }
            ]
        },
        {
            "name" : "g_landscape.020",
            "primitives" : [
                {
                    "attributes" : {
                        "POSITION" : 7,
                        "NORMAL" : 8,
                        "TANGENT" : 9,
                        "TEXCOORD_0" : 10,
                        "TEXCOORD_1" : 11,
                        "COLOR_0" : 12
                    },
                    "indices" : 13,
                    "material" : 0
                }
            ]
        }
    ],
    "accessors" : [
        {
            "bufferView" : 0,
            "componentType" : 5126,
            "count" : 10298,
            "max" : [
                100.42732238769531,
                99.86265563964844,
                18.215099334716797
            ],
            "min" : [
                -99.57270050048828,
                -100.13735961914062,
                -11.528910636901855
            ],
            "type" : "VEC3"
        },
        {
            "bufferView" : 1,
            "componentType" : 5126,
            "count" : 10298,
            "type" : "VEC3"
        },
        {
            "bufferView" : 2,
            "componentType" : 5126,
            "count" : 10298,
            "type" : "VEC4"
        },
        {
            "bufferView" : 3,
            "componentType" : 5126,
            "count" : 10298,
            "type" : "VEC2"
        },
        {
            "bufferView" : 4,
            "componentType" : 5126,
            "count" : 10298,
            "type" : "VEC2"
        },
        {
            "bufferView" : 5,
            "componentType" : 5126,
            "count" : 10298,
            "type" : "VEC4"
        },
        {
            "bufferView" : 6,
            "componentType" : 5123,
            "count" : 60000,
            "type" : "SCALAR"
        },
        {
            "bufferView" : 7,
            "componentType" : 5126,
            "count" : 145,
            "max" : [
                100.50174713134766,
                99.91758728027344,
                17.88214874267578
            ],
            "min" : [
                -99.5854263305664,
                -100.19414520263672,
                -11.563608169555664
            ],
            "type" : "VEC3"
        },
        {
            "bufferView" : 8,
            "componentType" : 5126,
            "count" : 145,
            "type" : "VEC3"
        },
        {
            "bufferView" : 9,
            "componentType" : 5126,
            "count" : 145,
            "type" : "VEC4"
        },
        {
            "bufferView" : 10,
            "componentType" : 5126,
            "count" : 145,
            "type" : "VEC2"
        },
        {
            "bufferView" : 11,
            "componentType" : 5126,
            "count" : 145,
            "type" : "VEC2"
        },
        {
            "bufferView" : 12,
            "componentType" : 5126,
            "count" : 145,
            "type" : "VEC4"
        },
        {
            "bufferView" : 13,
            "componentType" : 5123,
            "count" : 747,
            "type" : "SCALAR"
        }
    ],
    "bufferViews" : [
        {
            "buffer" : 0,
            "byteLength" : 123576,
            "byteOffset" : 0
        },
        {
            "buffer" : 0,
            "byteLength" : 123576,
            "byteOffset" : 123576
        },
        {
            "buffer" : 0,
            "byteLength" : 164768,
            "byteOffset" : 247152
        },
        {
            "buffer" : 0,
            "byteLength" : 82384,
            "byteOffset" : 411920
        },
        {
            "buffer" : 0,
            "byteLength" : 82384,
            "byteOffset" : 494304
        },
        {
            "buffer" : 0,
            "byteLength" : 164768,
            "byteOffset" : 576688
        },
        {
            "buffer" : 0,
            "byteLength" : 120000,
            "byteOffset" : 741456
        },
        {
            "buffer" : 0,
            "byteLength" : 1740,
            "byteOffset" : 861456
        },
        {
            "buffer" : 0,
            "byteLength" : 1740,
            "byteOffset" : 863196
        },
        {
            "buffer" : 0,
            "byteLength" : 2320,
            "byteOffset" : 864936
        },
        {
            "buffer" : 0,
            "byteLength" : 1160,
            "byteOffset" : 867256
        },
        {
            "buffer" : 0,
            "byteLength" : 1160,
            "byteOffset" : 868416
        },
        {
            "buffer" : 0,
            "byteLength" : 2320,
            "byteOffset" : 869576
        },
        {
            "buffer" : 0,
            "byteLength" : 1494,
            "byteOffset" : 871896
        }
    ],
    "buffers" : [
        {
            "byteLength" : 873392,
            "uri" : "data:application/octet-stream;base64,"
        }
    ]
}
