{
    "asset" : {
        "generator" : "Khronos glTF Blender I/O v1.0.5",
        "version" : "2.0"
    },
    "scene" : 0,
    "scenes" : [
        {
            "extras" : {
                "glTF2ExportSettings" : {
                    "export_all_influences" : 0,
                    "export_animations" : 1,
                    "export_apply" : 1,
                    "export_cameras" : 1,
                    "export_colors" : 1,
                    "export_copyright" : "",
                    "export_current_frame" : 0,
                    "export_displacement" : 0,
                    "export_draco_mesh_compression_enable" : 0,
                    "export_draco_mesh_compression_level" : 6,
                    "export_draco_normal_quantization" : 10,
                    "export_draco_position_quantization" : 14,
                    "export_draco_texcoord_quantization" : 12,
                    "export_extras" : 1,
                    "export_force_sampling" : 1,
                    "export_format" : "GLTF_EMBEDDED",
                    "export_frame_range" : 1,
                    "export_frame_step" : 1,
                    "export_image_format" : "NAME",
                    "export_lights" : 1,
                    "export_materials" : 1,
                    "export_morph" : 1,
                    "export_morph_normal" : 1,
                    "export_morph_tangent" : 0,
                    "export_nla_strips" : 1,
                    "export_normals" : 1,
                    "export_selected" : 1,
                    "export_skins" : 1,
                    "export_tangents" : 1,
                    "export_texcoords" : 1,
                    "export_yup" : 0
                }
            },
            "name" : "Scene",
            "nodes" : [
                3
            ]
        }
    ],
    "nodes" : [
        {
            "extras" : {},
            "mesh" : 0,
            "name" : "g_landscape_lod0",
            "translation" : [
                -150,
                -150,
                50
            ]
        },
        {
            "extras" : {},
            "mesh" : 1,
            "name" : "g_landscape_lod1",
            "translation" : [
                -150,
                -150,
                50
            ]
        },
        {
            "extras" : {},
            "mesh" : 2,
            "name" : "g_landscape_lod2",
            "translation" : [
                -150,
                -150,
                50
            ]
        },
        {
            "children" : [
                0,
                1,
                2
            ],
            "extras" : {},
            "name" : "rp_landscape"
        }
    ],
    "materials" : [
        {
            "name" : "mat_mat",
            "pbrMetallicRoughness" : {}
        }
    ],
    "meshes" : [
        {
            "name" : "Plane.004",
            "primitives" : [
                {
                    "attributes" : {
                        "POSITION" : 0,
                        "NORMAL" : 1,
                        "TANGENT" : 2,
                        "TEXCOORD_0" : 3,
                        "TEXCOORD_1" : 4
                    },
                    "indices" : 5,
                    "material" : 0
                }
            ]
        },
        {
            "name" : "Plane.004",
            "primitives" : [
                {
                    "attributes" : {
                        "POSITION" : 6,
                        "NORMAL" : 7,
                        "TANGENT" : 8,
                        "TEXCOORD_0" : 9,
                        "TEXCOORD_1" : 10
                    },
                    "indices" : 11,
                    "material" : 0
                }
            ]
        },
        {
            "name" : "Plane.004",
            "primitives" : [
                {
                    "attributes" : {
                        "POSITION" : 12,
                        "NORMAL" : 13,
                        "TANGENT" : 14,
                        "TEXCOORD_0" : 15,
                        "TEXCOORD_1" : 16
                    },
                    "indices" : 17,
                    "material" : 0
                }
            ]
        }
    ],
    "accessors" : [
        {
            "bufferView" : 0,
            "componentType" : 5126,
            "count" : 6716,
            "max" : [
                50.001853942871094,
                50.00581741333008,
                23.946950912475586
            ],
            "min" : [
                -50.00300979614258,
                -50.003028869628906,
                -22.798784255981445
            ],
            "type" : "VEC3"
        },
        {
            "bufferView" : 1,
            "componentType" : 5126,
            "count" : 6716,
            "type" : "VEC3"
        },
        {
            "bufferView" : 2,
            "componentType" : 5126,
            "count" : 6716,
            "type" : "VEC4"
        },
        {
            "bufferView" : 3,
            "componentType" : 5126,
            "count" : 6716,
            "type" : "VEC2"
        },
        {
            "bufferView" : 4,
            "componentType" : 5126,
            "count" : 6716,
            "type" : "VEC2"
        },
        {
            "bufferView" : 5,
            "componentType" : 5123,
            "count" : 39321,
            "type" : "SCALAR"
        },
        {
            "bufferView" : 6,
            "componentType" : 5126,
            "count" : 289,
            "max" : [
                50.00000762939453,
                50.00000762939453,
                23.768632888793945
            ],
            "min" : [
                -50.00000762939453,
                -50.00000762939453,
                -22.598844528198242
            ],
            "type" : "VEC3"
        },
        {
            "bufferView" : 7,
            "componentType" : 5126,
            "count" : 289,
            "type" : "VEC3"
        },
        {
            "bufferView" : 8,
            "componentType" : 5126,
            "count" : 289,
            "type" : "VEC4"
        },
        {
            "bufferView" : 9,
            "componentType" : 5126,
            "count" : 289,
            "type" : "VEC2"
        },
        {
            "bufferView" : 10,
            "componentType" : 5126,
            "count" : 289,
            "type" : "VEC2"
        },
        {
            "bufferView" : 11,
            "componentType" : 5123,
            "count" : 1536,
            "type" : "SCALAR"
        },
        {
            "bufferView" : 12,
            "componentType" : 5126,
            "count" : 25,
            "max" : [
                50.00000762939453,
                50.00000762939453,
                22.21306800842285
            ],
            "min" : [
                -50.00000762939453,
                -50.00000762939453,
                -22.30879783630371
            ],
            "type" : "VEC3"
        },
        {
            "bufferView" : 13,
            "componentType" : 5126,
            "count" : 25,
            "type" : "VEC3"
        },
        {
            "bufferView" : 14,
            "componentType" : 5126,
            "count" : 25,
            "type" : "VEC4"
        },
        {
            "bufferView" : 15,
            "componentType" : 5126,
            "count" : 25,
            "type" : "VEC2"
        },
        {
            "bufferView" : 16,
            "componentType" : 5126,
            "count" : 25,
            "type" : "VEC2"
        },
        {
            "bufferView" : 17,
            "componentType" : 5123,
            "count" : 96,
            "type" : "SCALAR"
        }
    ],
    "bufferViews" : [
        {
            "buffer" : 0,
            "byteLength" : 80592,
            "byteOffset" : 0
        },
        {
            "buffer" : 0,
            "byteLength" : 80592,
            "byteOffset" : 80592
        },
        {
            "buffer" : 0,
            "byteLength" : 107456,
            "byteOffset" : 161184
        },
        {
            "buffer" : 0,
            "byteLength" : 53728,
            "byteOffset" : 268640
        },
        {
            "buffer" : 0,
            "byteLength" : 53728,
            "byteOffset" : 322368
        },
        {
            "buffer" : 0,
            "byteLength" : 78642,
            "byteOffset" : 376096
        },
        {
            "buffer" : 0,
            "byteLength" : 3468,
            "byteOffset" : 454740
        },
        {
            "buffer" : 0,
            "byteLength" : 3468,
            "byteOffset" : 458208
        },
        {
            "buffer" : 0,
            "byteLength" : 4624,
            "byteOffset" : 461676
        },
        {
            "buffer" : 0,
            "byteLength" : 2312,
            "byteOffset" : 466300
        },
        {
            "buffer" : 0,
            "byteLength" : 2312,
            "byteOffset" : 468612
        },
        {
            "buffer" : 0,
            "byteLength" : 3072,
            "byteOffset" : 470924
        },
        {
            "buffer" : 0,
            "byteLength" : 300,
            "byteOffset" : 473996
        },
        {
            "buffer" : 0,
            "byteLength" : 300,
            "byteOffset" : 474296
        },
        {
            "buffer" : 0,
            "byteLength" : 400,
            "byteOffset" : 474596
        },
        {
            "buffer" : 0,
            "byteLength" : 200,
            "byteOffset" : 474996
        },
        {
            "buffer" : 0,
            "byteLength" : 200,
            "byteOffset" : 475196
        },
        {
            "buffer" : 0,
            "byteLength" : 192,
            "byteOffset" : 475396
        }
    ],
    "buffers" : [
        {
            "byteLength" : 475588,
            "uri" : "data:application/octet-stream;base64,"
        }
    ]
}
