{
    "asset" : {
        "generator" : "Khronos glTF Blender I/O v1.0.5",
        "version" : "2.0"
    },
    "scene" : 0,
    "scenes" : [
        {
            "extras" : {
                "glTF2ExportSettings" : {
                    "export_all_influences" : 0,
                    "export_animations" : 1,
                    "export_apply" : 1,
                    "export_cameras" : 1,
                    "export_colors" : 1,
                    "export_copyright" : "",
                    "export_current_frame" : 0,
                    "export_displacement" : 0,
                    "export_draco_mesh_compression_enable" : 0,
                    "export_draco_mesh_compression_level" : 6,
                    "export_draco_normal_quantization" : 10,
                    "export_draco_position_quantization" : 14,
                    "export_draco_texcoord_quantization" : 12,
                    "export_extras" : 1,
                    "export_force_sampling" : 1,
                    "export_format" : "GLTF_EMBEDDED",
                    "export_frame_range" : 1,
                    "export_frame_step" : 1,
                    "export_image_format" : "NAME",
                    "export_lights" : 1,
                    "export_materials" : 1,
                    "export_morph" : 1,
                    "export_morph_normal" : 1,
                    "export_morph_tangent" : 0,
                    "export_nla_strips" : 1,
                    "export_normals" : 1,
                    "export_selected" : 1,
                    "export_skins" : 1,
                    "export_tangents" : 1,
                    "export_texcoords" : 1,
                    "export_yup" : 0
                }
            },
            "name" : "Scene",
            "nodes" : [
                13
            ]
        }
    ],
    "nodes" : [
        {
            "extras" : {},
            "mesh" : 0,
            "name" : "c_box_001"
        },
        {
            "extras" : {},
            "mesh" : 1,
            "name" : "c_box_002",
            "translation" : [
                0.22999995946884155,
                -0.3799999952316284,
                0.699999988079071
            ]
        },
        {
            "extras" : {},
            "mesh" : 2,
            "name" : "c_box_003",
            "translation" : [
                0.22999995946884155,
                0.3799999952316284,
                0.699999988079071
            ]
        },
        {
            "extras" : {},
            "mesh" : 3,
            "name" : "c_box_004",
            "translation" : [
                0.7299999594688416,
                0,
                0.699999988079071
            ]
        },
        {
            "extras" : {},
            "mesh" : 4,
            "name" : "c_box_005",
            "translation" : [
                -0.699999988079071,
                0,
                0.699999988079071
            ]
        },
        {
            "extras" : {},
            "mesh" : 5,
            "name" : "dm_wood",
            "translation" : [
                0,
                0,
                0.5
            ]
        },
        {
            "extras" : {},
            "mesh" : 6,
            "name" : "g_munition_crate_lod0",
            "translation" : [
                0,
                0,
                0.5
            ]
        },
        {
            "extras" : {},
            "mesh" : 7,
            "name" : "g_munition_crate_lod1",
            "translation" : [
                0,
                0,
                0.5
            ]
        },
        {
            "extras" : {},
            "mesh" : 8,
            "name" : "g_munition_crate_lod2",
            "translation" : [
                0,
                0,
                0.5
            ]
        },
        {
            "extras" : {},
            "name" : "sp_item_01",
            "rotation" : [
                0,
                0,
                0.02918948605656624,
                0.9995738863945007
            ],
            "translation" : [
                -0.48603934049606323,
                -0.020648248493671417,
                0.699999988079071
            ]
        },
        {
            "extras" : {},
            "name" : "sp_item_02",
            "rotation" : [
                0,
                0,
                -0.01645876280963421,
                0.9998645186424255
            ],
            "translation" : [
                -0.1894712746143341,
                -0.009798195213079453,
                0.699999988079071
            ]
        },
        {
            "extras" : {},
            "name" : "sp_item_03",
            "rotation" : [
                0,
                0,
                0.04854938015341759,
                0.9988207817077637
            ],
            "translation" : [
                0.1468804031610489,
                -0.017031563445925713,
                0.699999988079071
            ]
        },
        {
            "extras" : {},
            "name" : "sp_item_04",
            "rotation" : [
                0,
                0,
                -0.051936086267232895,
                0.9986504316329956
            ],
            "translation" : [
                0.40501564741134644,
                -0.010054935701191425,
                0.699999988079071
            ]
        },
        {
            "children" : [
                0,
                1,
                2,
                3,
                4,
                5,
                6,
                7,
                8,
                9,
                10,
                11,
                12
            ],
            "extras" : {},
            "name" : "rp_munition_crate"
        }
    ],
    "materials" : [
        {
            "name" : "mat_crate",
            "pbrMetallicRoughness" : {}
        },
        {
            "doubleSided" : true,
            "name" : "mat_crate_lod",
            "pbrMetallicRoughness" : {}
        }
    ],
    "meshes" : [
        {
            "name" : "Cube",
            "primitives" : [
                {
                    "attributes" : {
                        "POSITION" : 0,
                        "NORMAL" : 1,
                        "TANGENT" : 2,
                        "TEXCOORD_0" : 3
                    },
                    "indices" : 4
                }
            ]
        },
        {
            "name" : "Cube.004",
            "primitives" : [
                {
                    "attributes" : {
                        "POSITION" : 5,
                        "NORMAL" : 6,
                        "TANGENT" : 7,
                        "TEXCOORD_0" : 8
                    },
                    "indices" : 4
                }
            ]
        },
        {
            "name" : "Cube.003",
            "primitives" : [
                {
                    "attributes" : {
                        "POSITION" : 9,
                        "NORMAL" : 10,
                        "TANGENT" : 11,
                        "TEXCOORD_0" : 12
                    },
                    "indices" : 4
                }
            ]
        },
        {
            "name" : "Cube.002",
            "primitives" : [
                {
                    "attributes" : {
                        "POSITION" : 13,
                        "NORMAL" : 14,
                        "TANGENT" : 15,
                        "TEXCOORD_0" : 16
                    },
                    "indices" : 4
                }
            ]
        },
        {
            "name" : "Cube.001",
            "primitives" : [
                {
                    "attributes" : {
                        "POSITION" : 17,
                        "NORMAL" : 18,
                        "TANGENT" : 19,
                        "TEXCOORD_0" : 20
                    },
                    "indices" : 4
                }
            ]
        },
        {
            "name" : "g_g.005",
            "primitives" : [
                {
                    "attributes" : {
                        "POSITION" : 21,
                        "NORMAL" : 22,
                        "TANGENT" : 23,
                        "TEXCOORD_0" : 24,
                        "COLOR_0" : 25
                    },
                    "indices" : 26
                }
            ]
        },
        {
            "name" : "g_g",
            "primitives" : [
                {
                    "attributes" : {
                        "POSITION" : 27,
                        "NORMAL" : 28,
                        "TEXCOORD_0" : 29,
                        "COLOR_0" : 30
                    },
                    "indices" : 31,
                    "material" : 0
                }
            ]
        },
        {
            "name" : "g_g.004",
            "primitives" : [
                {
                    "attributes" : {
                        "POSITION" : 32,
                        "NORMAL" : 33,
                        "TEXCOORD_0" : 34,
                        "COLOR_0" : 35
                    },
                    "indices" : 31,
                    "material" : 1
                }
            ]
        },
        {
            "name" : "g_g.003",
            "primitives" : [
                {
                    "attributes" : {
                        "POSITION" : 36,
                        "NORMAL" : 37,
                        "TANGENT" : 38,
                        "TEXCOORD_0" : 39,
                        "COLOR_0" : 40
                    },
                    "indices" : 41,
                    "material" : 1
                }
            ]
        }
    ],
    "accessors" : [
        {
            "bufferView" : 0,
            "componentType" : 5126,
            "count" : 24,
            "max" : [
                0.75,
                0.40000003576278687,
                0.699999988079071
            ],
            "min" : [
                -0.75,
                -0.4000000059604645,
                0
            ],
            "type" : "VEC3"
        },
        {
            "bufferView" : 1,
            "componentType" : 5126,
            "count" : 24,
            "type" : "VEC3"
        },
        {
            "bufferView" : 2,
            "componentType" : 5126,
            "count" : 24,
            "type" : "VEC4"
        },
        {
            "bufferView" : 3,
            "componentType" : 5126,
            "count" : 24,
            "type" : "VEC2"
        },
        {
            "bufferView" : 4,
            "componentType" : 5123,
            "count" : 36,
            "type" : "SCALAR"
        },
        {
            "bufferView" : 5,
            "componentType" : 5126,
            "count" : 24,
            "max" : [
                0.44999998807907104,
                0.02000001072883606,
                0.1499999761581421
            ],
            "min" : [
                -0.9100000858306885,
                -0.019999992102384567,
                0
            ],
            "type" : "VEC3"
        },
        {
            "bufferView" : 6,
            "componentType" : 5126,
            "count" : 24,
            "type" : "VEC3"
        },
        {
            "bufferView" : 7,
            "componentType" : 5126,
            "count" : 24,
            "type" : "VEC4"
        },
        {
            "bufferView" : 8,
            "componentType" : 5126,
            "count" : 24,
            "type" : "VEC2"
        },
        {
            "bufferView" : 9,
            "componentType" : 5126,
            "count" : 24,
            "max" : [
                0.44999998807907104,
                0.02000001072883606,
                0.1499999761581421
            ],
            "min" : [
                -0.9100000858306885,
                -0.019999992102384567,
                0
            ],
            "type" : "VEC3"
        },
        {
            "bufferView" : 10,
            "componentType" : 5126,
            "count" : 24,
            "type" : "VEC3"
        },
        {
            "bufferView" : 11,
            "componentType" : 5126,
            "count" : 24,
            "type" : "VEC4"
        },
        {
            "bufferView" : 12,
            "componentType" : 5126,
            "count" : 24,
            "type" : "VEC2"
        },
        {
            "bufferView" : 13,
            "componentType" : 5126,
            "count" : 24,
            "max" : [
                0.02000001259148121,
                0.40000003576278687,
                0.1499999761581421
            ],
            "min" : [
                -0.050000011920928955,
                -0.4000000059604645,
                0
            ],
            "type" : "VEC3"
        },
        {
            "bufferView" : 14,
            "componentType" : 5126,
            "count" : 24,
            "type" : "VEC3"
        },
        {
            "bufferView" : 15,
            "componentType" : 5126,
            "count" : 24,
            "type" : "VEC4"
        },
        {
            "bufferView" : 16,
            "componentType" : 5126,
            "count" : 24,
            "type" : "VEC2"
        },
        {
            "bufferView" : 17,
            "componentType" : 5126,
            "count" : 24,
            "max" : [
                0.02000001259148121,
                0.40000003576278687,
                0.1499999761581421
            ],
            "min" : [
                -0.050000011920928955,
                -0.4000000059604645,
                0
            ],
            "type" : "VEC3"
        },
        {
            "bufferView" : 18,
            "componentType" : 5126,
            "count" : 24,
            "type" : "VEC3"
        },
        {
            "bufferView" : 19,
            "componentType" : 5126,
            "count" : 24,
            "type" : "VEC4"
        },
        {
            "bufferView" : 20,
            "componentType" : 5126,
            "count" : 24,
            "type" : "VEC2"
        },
        {
            "bufferView" : 21,
            "componentType" : 5126,
            "count" : 209,
            "max" : [
                0.7852268815040588,
                0.40000009536743164,
                0.3500000238418579
            ],
            "min" : [
                -0.7500004768371582,
                -0.5133754014968872,
                -0.5000001192092896
            ],
            "type" : "VEC3"
        },
        {
            "bufferView" : 22,
            "componentType" : 5126,
            "count" : 209,
            "type" : "VEC3"
        },
        {
            "bufferView" : 23,
            "componentType" : 5126,
            "count" : 209,
            "type" : "VEC4"
        },
        {
            "bufferView" : 24,
            "componentType" : 5126,
            "count" : 209,
            "type" : "VEC2"
        },
        {
            "bufferView" : 25,
            "componentType" : 5126,
            "count" : 209,
            "type" : "VEC4"
        },
        {
            "bufferView" : 26,
            "componentType" : 5123,
            "count" : 216,
            "type" : "SCALAR"
        },
        {
            "bufferView" : 27,
            "componentType" : 5126,
            "count" : 292,
            "max" : [
                0.7852268815040588,
                0.4000001549720764,
                0.350000262260437
            ],
            "min" : [
                -0.7500004768371582,
                -0.5133754014968872,
                -0.5002028346061707
            ],
            "type" : "VEC3"
        },
        {
            "bufferView" : 28,
            "componentType" : 5126,
            "count" : 292,
            "type" : "VEC3"
        },
        {
            "bufferView" : 29,
            "componentType" : 5126,
            "count" : 292,
            "type" : "VEC2"
        },
        {
            "bufferView" : 30,
            "componentType" : 5126,
            "count" : 292,
            "type" : "VEC4"
        },
        {
            "bufferView" : 31,
            "componentType" : 5123,
            "count" : 444,
            "type" : "SCALAR"
        },
        {
            "bufferView" : 32,
            "componentType" : 5126,
            "count" : 292,
            "max" : [
                0.7852268815040588,
                0.4000001549720764,
                0.350000262260437
            ],
            "min" : [
                -0.7500004768371582,
                -0.5133754014968872,
                -0.5002028346061707
            ],
            "type" : "VEC3"
        },
        {
            "bufferView" : 33,
            "componentType" : 5126,
            "count" : 292,
            "type" : "VEC3"
        },
        {
            "bufferView" : 34,
            "componentType" : 5126,
            "count" : 292,
            "type" : "VEC2"
        },
        {
            "bufferView" : 35,
            "componentType" : 5126,
            "count" : 292,
            "type" : "VEC4"
        },
        {
            "bufferView" : 36,
            "componentType" : 5126,
            "count" : 207,
            "max" : [
                0.7852268815040588,
                0.40000009536743164,
                0.3500000238418579
            ],
            "min" : [
                -0.7500004768371582,
                -0.5133754014968872,
                -0.5000001192092896
            ],
            "type" : "VEC3"
        },
        {
            "bufferView" : 37,
            "componentType" : 5126,
            "count" : 207,
            "type" : "VEC3"
        },
        {
            "bufferView" : 38,
            "componentType" : 5126,
            "count" : 207,
            "type" : "VEC4"
        },
        {
            "bufferView" : 39,
            "componentType" : 5126,
            "count" : 207,
            "type" : "VEC2"
        },
        {
            "bufferView" : 40,
            "componentType" : 5126,
            "count" : 207,
            "type" : "VEC4"
        },
        {
            "bufferView" : 41,
            "componentType" : 5123,
            "count" : 216,
            "type" : "SCALAR"
        }
    ],
    "bufferViews" : [
        {
            "buffer" : 0,
            "byteLength" : 288,
            "byteOffset" : 0
        },
        {
            "buffer" : 0,
            "byteLength" : 288,
            "byteOffset" : 288
        },
        {
            "buffer" : 0,
            "byteLength" : 384,
            "byteOffset" : 576
        },
        {
            "buffer" : 0,
            "byteLength" : 192,
            "byteOffset" : 960
        },
        {
            "buffer" : 0,
            "byteLength" : 72,
            "byteOffset" : 1152
        },
        {
            "buffer" : 0,
            "byteLength" : 288,
            "byteOffset" : 1224
        },
        {
            "buffer" : 0,
            "byteLength" : 288,
            "byteOffset" : 1512
        },
        {
            "buffer" : 0,
            "byteLength" : 384,
            "byteOffset" : 1800
        },
        {
            "buffer" : 0,
            "byteLength" : 192,
            "byteOffset" : 2184
        },
        {
            "buffer" : 0,
            "byteLength" : 288,
            "byteOffset" : 2376
        },
        {
            "buffer" : 0,
            "byteLength" : 288,
            "byteOffset" : 2664
        },
        {
            "buffer" : 0,
            "byteLength" : 384,
            "byteOffset" : 2952
        },
        {
            "buffer" : 0,
            "byteLength" : 192,
            "byteOffset" : 3336
        },
        {
            "buffer" : 0,
            "byteLength" : 288,
            "byteOffset" : 3528
        },
        {
            "buffer" : 0,
            "byteLength" : 288,
            "byteOffset" : 3816
        },
        {
            "buffer" : 0,
            "byteLength" : 384,
            "byteOffset" : 4104
        },
        {
            "buffer" : 0,
            "byteLength" : 192,
            "byteOffset" : 4488
        },
        {
            "buffer" : 0,
            "byteLength" : 288,
            "byteOffset" : 4680
        },
        {
            "buffer" : 0,
            "byteLength" : 288,
            "byteOffset" : 4968
        },
        {
            "buffer" : 0,
            "byteLength" : 384,
            "byteOffset" : 5256
        },
        {
            "buffer" : 0,
            "byteLength" : 192,
            "byteOffset" : 5640
        },
        {
            "buffer" : 0,
            "byteLength" : 2508,
            "byteOffset" : 5832
        },
        {
            "buffer" : 0,
            "byteLength" : 2508,
            "byteOffset" : 8340
        },
        {
            "buffer" : 0,
            "byteLength" : 3344,
            "byteOffset" : 10848
        },
        {
            "buffer" : 0,
            "byteLength" : 1672,
            "byteOffset" : 14192
        },
        {
            "buffer" : 0,
            "byteLength" : 3344,
            "byteOffset" : 15864
        },
        {
            "buffer" : 0,
            "byteLength" : 432,
            "byteOffset" : 19208
        },
        {
            "buffer" : 0,
            "byteLength" : 3504,
            "byteOffset" : 19640
        },
        {
            "buffer" : 0,
            "byteLength" : 3504,
            "byteOffset" : 23144
        },
        {
            "buffer" : 0,
            "byteLength" : 2336,
            "byteOffset" : 26648
        },
        {
            "buffer" : 0,
            "byteLength" : 4672,
            "byteOffset" : 28984
        },
        {
            "buffer" : 0,
            "byteLength" : 888,
            "byteOffset" : 33656
        },
        {
            "buffer" : 0,
            "byteLength" : 3504,
            "byteOffset" : 34544
        },
        {
            "buffer" : 0,
            "byteLength" : 3504,
            "byteOffset" : 38048
        },
        {
            "buffer" : 0,
            "byteLength" : 2336,
            "byteOffset" : 41552
        },
        {
            "buffer" : 0,
            "byteLength" : 4672,
            "byteOffset" : 43888
        },
        {
            "buffer" : 0,
            "byteLength" : 2484,
            "byteOffset" : 48560
        },
        {
            "buffer" : 0,
            "byteLength" : 2484,
            "byteOffset" : 51044
        },
        {
            "buffer" : 0,
            "byteLength" : 3312,
            "byteOffset" : 53528
        },
        {
            "buffer" : 0,
            "byteLength" : 1656,
            "byteOffset" : 56840
        },
        {
            "buffer" : 0,
            "byteLength" : 3312,
            "byteOffset" : 58496
        },
        {
            "buffer" : 0,
            "byteLength" : 432,
            "byteOffset" : 61808
        }
    ],
    "buffers" : [
        {
            "byteLength" : 62240,
            "uri" : "data:application/octet-stream;base64,"
        }
    ]
}
